name rise30.3154peak39.0474fall46.5389.mot
datacolumns 19
datarows 36
range 1.79833100000000 1.85666400000000
endheader
time	ground_force1_vx	ground_force1_vy	ground_force1_vz	ground_force1_px	ground_force1_py	ground_force1_pz	ground_force2_vx	ground_force2_vy	ground_force2_vz	ground_force2_px	ground_force2_py	ground_force2_pz	ground_torque1_x	ground_torque1_y	ground_torque1_z	ground_torque2_x	ground_torque2_y	ground_torque2_z	
1.79833100000000	9.88649700000000	693.39360599999998	43.82870500000000	0.20859500000000	0.00000000000000	0.10413000000000	0.00000000000000	0.00000000000000	0.00000000000000	0.00000000000000	0.00000000000000	0.00000000000000	0.00000000000000	17.69344500000000	0.00000000000000	0.00000000000000	0.00000000000000	0.00000000000000	
1.79999500000000	9.47472700000000	694.38877500000001	43.89586600000000	0.20784800000000	0.00000000000000	0.10401200000000	0.00000000000000	0.00000000000000	0.00000000000000	0.00000000000000	0.00000000000000	0.00000000000000	0.00000000000000	17.76212400000000	0.00000000000000	0.00000000000000	0.00000000000000	0.00000000000000	
1.80166400000000	9.04972500000000	695.43597000000000	43.96924900000000	0.20707600000000	0.00000000000000	0.10389600000000	0.00000000000000	0.00000000000000	0.00000000000000	0.00000000000000	0.00000000000000	0.00000000000000	0.00000000000000	17.83537500000000	0.00000000000000	0.00000000000000	0.00000000000000	0.00000000000000	
1.80333400000000	8.61108500000000	696.53455399999996	44.04854500000000	0.20627600000000	0.00000000000000	0.10378100000000	0.00000000000000	0.00000000000000	0.00000000000000	0.00000000000000	0.00000000000000	0.00000000000000	0.00000000000000	17.91302600000000	0.00000000000000	0.00000000000000	0.00000000000000	0.00000000000000	
1.80499300000000	8.15845600000000	697.68388800000002	44.13344600000000	0.20544900000000	0.00000000000000	0.10366800000000	0.00000000000000	0.00000000000000	0.00000000000000	0.00000000000000	0.00000000000000	0.00000000000000	0.00000000000000	17.99489800000000	0.00000000000000	0.00000000000000	0.00000000000000	0.00000000000000	
1.80666400000000	7.69154700000000	698.88334099999997	44.22365100000000	0.20459200000000	0.00000000000000	0.10355800000000	0.00000000000000	0.00000000000000	0.00000000000000	0.00000000000000	0.00000000000000	0.00000000000000	0.00000000000000	18.08081300000000	0.00000000000000	0.00000000000000	0.00000000000000	0.00000000000000	
1.80833000000000	7.21012300000000	700.13227900000004	44.31886200000000	0.20370600000000	0.00000000000000	0.10345000000000	0.00000000000000	0.00000000000000	0.00000000000000	0.00000000000000	0.00000000000000	0.00000000000000	0.00000000000000	18.17058900000000	0.00000000000000	0.00000000000000	0.00000000000000	0.00000000000000	
1.81000000000000	6.71401200000000	701.43006600000001	44.41878700000000	0.20279100000000	0.00000000000000	0.10334500000000	0.00000000000000	0.00000000000000	0.00000000000000	0.00000000000000	0.00000000000000	0.00000000000000	0.00000000000000	18.26404000000000	0.00000000000000	0.00000000000000	0.00000000000000	0.00000000000000	
1.81166600000000	6.20310800000000	702.77606300000002	44.52314300000000	0.20184600000000	0.00000000000000	0.10324300000000	0.00000000000000	0.00000000000000	0.00000000000000	0.00000000000000	0.00000000000000	0.00000000000000	0.00000000000000	18.36098200000000	0.00000000000000	0.00000000000000	0.00000000000000	0.00000000000000	
1.81332900000000	5.67736400000000	704.16962000000001	44.63165200000000	0.20087100000000	0.00000000000000	0.10314400000000	0.00000000000000	0.00000000000000	0.00000000000000	0.00000000000000	0.00000000000000	0.00000000000000	0.00000000000000	18.46122500000000	0.00000000000000	0.00000000000000	0.00000000000000	0.00000000000000	
1.81499900000000	5.13680200000000	705.61007800000004	44.74404700000000	0.19986700000000	0.00000000000000	0.10304800000000	0.00000000000000	0.00000000000000	0.00000000000000	0.00000000000000	0.00000000000000	0.00000000000000	0.00000000000000	18.56458000000000	0.00000000000000	0.00000000000000	0.00000000000000	0.00000000000000	
1.81666600000000	4.58150800000000	707.09676200000001	44.86007000000000	0.19883500000000	0.00000000000000	0.10295500000000	0.00000000000000	0.00000000000000	0.00000000000000	0.00000000000000	0.00000000000000	0.00000000000000	0.00000000000000	18.67085600000000	0.00000000000000	0.00000000000000	0.00000000000000	0.00000000000000	
1.81833000000000	4.01163400000000	708.62897999999996	44.97947400000000	0.19777400000000	0.00000000000000	0.10286500000000	0.00000000000000	0.00000000000000	0.00000000000000	0.00000000000000	0.00000000000000	0.00000000000000	0.00000000000000	18.77986100000000	0.00000000000000	0.00000000000000	0.00000000000000	0.00000000000000	
1.81999700000000	3.42739900000000	710.20601599999998	45.10202300000000	0.19668700000000	0.00000000000000	0.10278000000000	0.00000000000000	0.00000000000000	0.00000000000000	0.00000000000000	0.00000000000000	0.00000000000000	0.00000000000000	18.89140300000000	0.00000000000000	0.00000000000000	0.00000000000000	0.00000000000000	
1.82166200000000	2.82908500000000	711.82712900000001	45.22749200000000	0.19557500000000	0.00000000000000	0.10269700000000	0.00000000000000	0.00000000000000	0.00000000000000	0.00000000000000	0.00000000000000	0.00000000000000	0.00000000000000	19.00528600000000	0.00000000000000	0.00000000000000	0.00000000000000	0.00000000000000	
1.82333100000000	2.21703900000000	713.49154799999997	45.35566900000000	0.19443800000000	0.00000000000000	0.10261800000000	0.00000000000000	0.00000000000000	0.00000000000000	0.00000000000000	0.00000000000000	0.00000000000000	0.00000000000000	19.12131800000000	0.00000000000000	0.00000000000000	0.00000000000000	0.00000000000000	
1.82499300000000	1.59167300000000	715.19846900000005	45.48635700000000	0.19327900000000	0.00000000000000	0.10254300000000	0.00000000000000	0.00000000000000	0.00000000000000	0.00000000000000	0.00000000000000	0.00000000000000	0.00000000000000	19.23930100000000	0.00000000000000	0.00000000000000	0.00000000000000	0.00000000000000	
1.82666100000000	0.95345900000000	716.94704700000000	45.61936900000000	0.19209800000000	0.00000000000000	0.10247200000000	0.00000000000000	0.00000000000000	0.00000000000000	0.00000000000000	0.00000000000000	0.00000000000000	0.00000000000000	19.35904100000000	0.00000000000000	0.00000000000000	0.00000000000000	0.00000000000000	
1.82833200000000	0.30293100000000	718.73639800000001	45.75453400000000	0.19089900000000	0.00000000000000	0.10240400000000	0.00000000000000	0.00000000000000	0.00000000000000	0.00000000000000	0.00000000000000	0.00000000000000	0.00000000000000	19.48034000000000	0.00000000000000	0.00000000000000	0.00000000000000	0.00000000000000	
1.82999700000000	-0.35931900000000	720.56559000000004	45.89169500000000	0.18968200000000	0.00000000000000	0.10234000000000	0.00000000000000	0.00000000000000	0.00000000000000	0.00000000000000	0.00000000000000	0.00000000000000	0.00000000000000	19.60300100000000	0.00000000000000	0.00000000000000	0.00000000000000	0.00000000000000	
1.83165800000000	-1.03264400000000	722.43364199999996	46.03070900000000	0.18845000000000	0.00000000000000	0.10228000000000	0.00000000000000	0.00000000000000	0.00000000000000	0.00000000000000	0.00000000000000	0.00000000000000	0.00000000000000	19.72682700000000	0.00000000000000	0.00000000000000	0.00000000000000	0.00000000000000	
1.83333000000000	-1.71634100000000	724.33951700000000	46.17144700000000	0.18720500000000	0.00000000000000	0.10222300000000	0.00000000000000	0.00000000000000	0.00000000000000	0.00000000000000	0.00000000000000	0.00000000000000	0.00000000000000	19.85161900000000	0.00000000000000	0.00000000000000	0.00000000000000	0.00000000000000	
1.83499500000000	-2.40965900000000	726.28212099999996	46.31379400000000	0.18594900000000	0.00000000000000	0.10216900000000	0.00000000000000	0.00000000000000	0.00000000000000	0.00000000000000	0.00000000000000	0.00000000000000	0.00000000000000	19.97717700000000	0.00000000000000	0.00000000000000	0.00000000000000	0.00000000000000	
1.83665900000000	-3.11179500000000	728.26029900000003	46.45765200000000	0.18468500000000	0.00000000000000	0.10211900000000	0.00000000000000	0.00000000000000	0.00000000000000	0.00000000000000	0.00000000000000	0.00000000000000	0.00000000000000	20.10330100000000	0.00000000000000	0.00000000000000	0.00000000000000	0.00000000000000	
1.83833100000000	-3.82190500000000	730.27282900000000	46.60293500000000	0.18341400000000	0.00000000000000	0.10207300000000	0.00000000000000	0.00000000000000	0.00000000000000	0.00000000000000	0.00000000000000	0.00000000000000	0.00000000000000	20.22979000000000	0.00000000000000	0.00000000000000	0.00000000000000	0.00000000000000	
1.84000100000000	-4.53910100000000	732.31842300000005	46.74957300000000	0.18213900000000	0.00000000000000	0.10202900000000	0.00000000000000	0.00000000000000	0.00000000000000	0.00000000000000	0.00000000000000	0.00000000000000	0.00000000000000	20.35644300000000	0.00000000000000	0.00000000000000	0.00000000000000	0.00000000000000	
1.84166700000000	-5.26245800000000	734.39571999999998	46.89750800000000	0.18086200000000	0.00000000000000	0.10198900000000	0.00000000000000	0.00000000000000	0.00000000000000	0.00000000000000	0.00000000000000	0.00000000000000	0.00000000000000	20.48305700000000	0.00000000000000	0.00000000000000	0.00000000000000	0.00000000000000	
1.84332700000000	-5.99101700000000	736.50328400000001	47.04669600000000	0.17958500000000	0.00000000000000	0.10195200000000	0.00000000000000	0.00000000000000	0.00000000000000	0.00000000000000	0.00000000000000	0.00000000000000	0.00000000000000	20.60942900000000	0.00000000000000	0.00000000000000	0.00000000000000	0.00000000000000	
1.84500000000000	-6.72379000000000	738.63960399999996	47.19710900000000	0.17831200000000	0.00000000000000	0.10191800000000	0.00000000000000	0.00000000000000	0.00000000000000	0.00000000000000	0.00000000000000	0.00000000000000	0.00000000000000	20.73535300000000	0.00000000000000	0.00000000000000	0.00000000000000	0.00000000000000	
1.84666700000000	-7.45975900000000	740.80308900000000	47.34872800000000	0.17704300000000	0.00000000000000	0.10188600000000	0.00000000000000	0.00000000000000	0.00000000000000	0.00000000000000	0.00000000000000	0.00000000000000	0.00000000000000	20.86062500000000	0.00000000000000	0.00000000000000	0.00000000000000	0.00000000000000	
1.84832500000000	-8.19788700000000	742.99206800000002	47.50154800000000	0.17578100000000	0.00000000000000	0.10185800000000	0.00000000000000	0.00000000000000	0.00000000000000	0.00000000000000	0.00000000000000	0.00000000000000	0.00000000000000	20.98503800000000	0.00000000000000	0.00000000000000	0.00000000000000	0.00000000000000	
1.84999500000000	-8.93711900000000	745.20478600000001	47.65557600000000	0.17452700000000	0.00000000000000	0.10183200000000	0.00000000000000	0.00000000000000	0.00000000000000	0.00000000000000	0.00000000000000	0.00000000000000	0.00000000000000	21.10838500000000	0.00000000000000	0.00000000000000	0.00000000000000	0.00000000000000	
1.85166400000000	-9.67638500000000	747.43940799999996	47.81082900000000	0.17328500000000	0.00000000000000	0.10180800000000	0.00000000000000	0.00000000000000	0.00000000000000	0.00000000000000	0.00000000000000	0.00000000000000	0.00000000000000	21.23046000000000	0.00000000000000	0.00000000000000	0.00000000000000	0.00000000000000	
1.85333100000000	-10.41460600000000	749.69401200000004	47.96733300000000	0.17205500000000	0.00000000000000	0.10178700000000	0.00000000000000	0.00000000000000	0.00000000000000	0.00000000000000	0.00000000000000	0.00000000000000	0.00000000000000	21.35105300000000	0.00000000000000	0.00000000000000	0.00000000000000	0.00000000000000	
1.85499500000000	-11.15070000000000	751.96659399999999	48.12512600000000	0.17084000000000	0.00000000000000	0.10176800000000	0.00000000000000	0.00000000000000	0.00000000000000	0.00000000000000	0.00000000000000	0.00000000000000	0.00000000000000	21.46995700000000	0.00000000000000	0.00000000000000	0.00000000000000	0.00000000000000	
1.85666400000000	-11.88358200000000	754.25506399999995	48.28425100000000	0.16964100000000	0.00000000000000	0.10175100000000	0.00000000000000	0.00000000000000	0.00000000000000	0.00000000000000	0.00000000000000	0.00000000000000	0.00000000000000	21.58696300000000	0.00000000000000	0.00000000000000	0.00000000000000	0.00000000000000	
